<?xml version="1.0" encoding="utf-8"?>
<!-- Generator: Adobe Illustrator 25.0.1, SVG Export Plug-In . SVG Version: 6.00 Build 0)  -->
<svg version="1.1" id="Layer_1" xmlns="http://www.w3.org/2000/svg" xmlns:xlink="http://www.w3.org/1999/xlink" x="0px" y="0px"
	 viewBox="0 0 33.3 10.6" style="enable-background:new 0 0 33.3 10.6;" xml:space="preserve">
<style type="text/css">
	.st0{fill:#11B0C8;}
</style>
<g>
	<path class="st0" d="M22.5,8.6c0-0.2,0-0.3-0.1-0.4c-0.1-0.1-0.1-0.3-0.1-0.5v0c0-0.2,0-0.3-0.1-0.4c-0.1-0.1-0.1-0.2-0.1-0.3
		c0-0.2,0-0.3-0.1-0.4C22,6.4,22,6.2,22,6.1c0.1-0.1,0.1-0.3,0.1-0.4c0-0.1,0-0.2,0-0.3c0-0.1,0-0.2,0-0.2c0-0.1,0-0.2,0-0.3
		c0-0.1,0-0.1-0.1-0.2c-0.1-0.1-0.1-0.1-0.1-0.2c0-0.1,0-0.2,0-0.3c0,0,0,0,0-0.1c0-0.2,0-0.3-0.1-0.4c0-0.1-0.1-0.2,0-0.3
		c0-0.2,0-0.3,0-0.5c0-0.2-0.1-0.4-0.1-0.6c0-0.1,0-0.1,0-0.2c0-0.1,0-0.3,0-0.4c0-0.2,0.1-0.3,0.1-0.5C22,1.3,22,1.2,22.1,1.1
		c0-0.1,0-0.1,0.1-0.2s0-0.1,0-0.2c-0.1-0.1-0.1-0.1-0.2,0s-0.1,0.1-0.2,0.2c-0.1,0.1-0.2,0.3-0.3,0.4c-0.1,0.1-0.1,0.2-0.1,0.3
		c0,0.2-0.1,0.4-0.2,0.6c0,0-0.1,0.1-0.1,0.2c0,0.1-0.1,0.1-0.1,0.2c-0.1,0.1-0.1,0.3-0.1,0.4c0,0.2-0.1,0.4-0.1,0.6
		c0,0.2-0.1,0.3-0.2,0.4c-0.1,0.1-0.1,0.2-0.2,0.3c0,0.1-0.1,0.2-0.1,0.3c0,0.1,0,0.1,0,0.2c0,0.3,0,0.5-0.1,0.8c0,0.1,0,0.1,0,0.2
		h0c-0.1-0.1-0.1-0.2-0.1-0.3c0-0.3-0.1-0.5,0-0.8c0-0.1,0-0.2,0-0.2s0-0.1-0.1-0.2c0,0,0,0-0.1,0c0,0,0-0.1,0-0.1
		c0-0.1,0-0.2-0.1-0.3c0-0.1,0-0.1,0-0.2c0-0.1,0-0.2,0-0.3c0-0.1,0-0.2-0.1-0.2c0,0,0,0-0.1,0c0,0,0-0.1,0-0.1c0-0.1,0-0.2,0-0.3
		s0.1-0.2,0.1-0.3c0-0.2,0.1-0.3,0.1-0.4c0-0.1,0-0.1-0.1-0.2s-0.1,0-0.2,0c-0.1,0.1-0.2,0.3-0.3,0.4c0,0.1,0,0.1-0.1,0.2
		c0,0.1-0.1,0.2-0.1,0.3C19.1,2.5,19,2.6,19,2.7c0,0,0,0,0,0.1c-0.1-0.1-0.1-0.2-0.2-0.1c0,0,0,0,0-0.1c0-0.1-0.1-0.1-0.2,0
		c0,0-0.1,0.1-0.1,0.1c0,0.1-0.1,0.3-0.1,0.4c0,0.1-0.1,0.3-0.1,0.4c-0.1,0.3-0.1,0.6-0.3,0.9c0,0,0,0.1,0,0.1c0,0.2,0,0.4,0,0.6
		c0.1,0.2,0,0.4,0,0.7C18,5.7,18,5.8,17.9,6c-0.2,0.2-0.2,0.4-0.2,0.6c0,0.1,0,0.2,0.1,0.3c0.1,0.2,0.1,0.3,0,0.5c0,0,0,0.1,0,0.1
		c0,0.1,0,0.2,0,0.3c0,0,0,0.1,0,0.2c0,0.2,0,0.4,0,0.6c0,0,0,0.1,0,0.1c0,0.1,0,0.1,0.1,0.1s0.1,0,0.1-0.1c0.1-0.1,0.1-0.2,0.1-0.3
		c0-0.2,0.1-0.3,0.1-0.5c0-0.1,0-0.2,0-0.2c0-0.2,0-0.3-0.1-0.4c0,0,0-0.1,0-0.1c0-0.2,0.1-0.3,0.2-0.4c0.1-0.1,0.2-0.2,0.1-0.3
		c0,0,0-0.1,0-0.1c0-0.1,0-0.2,0-0.3c0-0.1,0.1-0.3,0.1-0.4c0-0.2,0.1-0.4,0.1-0.7c0-0.2,0-0.3,0-0.5c-0.1-0.2-0.1-0.3,0-0.4
		c0-0.1,0-0.2,0.1-0.2c0-0.1,0-0.2,0.1-0.3c0,0.1,0,0.1,0,0.1c0,0.1,0,0.2,0,0.3c0,0.1,0,0.3,0.1,0.3c0.1,0,0.1,0.1,0.1,0.1
		c0,0.1,0,0.1,0.1,0.1c0.1,0.1,0.1,0.2,0.2,0.3v0c0,0.2,0.1,0.4,0.2,0.6c0,0.1,0,0.2,0.1,0.3c0,0.1,0,0.1,0,0.2c0,0.1,0,0.2,0,0.3
		c0,0.2,0,0.3,0.2,0.4c0.1,0,0.1,0,0.1,0.1c0,0.1,0,0.1,0,0.2c0,0.1,0,0.3,0.1,0.4c0,0.1,0.1,0.1,0.2,0.1c0.1,0,0.1-0.1,0.1-0.2
		c0-0.1,0-0.2,0-0.2c0-0.2,0.1-0.4,0.2-0.6c0-0.1,0.1-0.1,0.1-0.2c0-0.1,0-0.2,0-0.3c0-0.2,0-0.4,0.2-0.5l0,0
		c0.1-0.2,0.2-0.4,0.2-0.6c0-0.2,0-0.3,0-0.5c0,0,0-0.1,0-0.1c0,0,0,0.1,0,0.1c0,0.1,0,0.2,0.1,0.3c0,0,0,0,0.1,0.1
		c0.1,0.1,0.1,0.1,0.1,0.2c0,0.1,0,0.1-0.1,0.2c0,0.1-0.1,0.3-0.1,0.4c0,0.2,0,0.4,0.1,0.6c0,0,0,0.1,0,0.1c0,0.1,0,0.2,0,0.3
		c0,0.3,0.1,0.6,0.3,0.9c0.1,0.1,0.1,0.1,0,0.2c0,0.1,0,0.2-0.1,0.3c0,0.1,0,0.2,0.2,0.3l0,0c0,0.1,0,0.1,0,0.2c0,0.1,0,0.2,0.1,0.2
		c0.1,0,0.1,0.1,0.2,0.1c0.1,0,0.1,0.1,0.1,0.2s0,0.1,0,0.2c0,0.1,0,0.1,0.1,0.1c0,0,0.1,0,0.1,0h0l0,0C22.4,9,22.4,9,22.5,9
		c0.1,0,0.1-0.1,0-0.2C22.5,8.7,22.5,8.7,22.5,8.6"/>
	<path class="st0" d="M6.7,9c0-0.1-0.1-0.2-0.2-0.3C6.4,8.5,6.4,8.4,6.3,8.3C6.3,8.1,6.2,8,6,7.9C6,7.9,6,7.9,5.9,7.8
		c0-0.1-0.1-0.1-0.1-0.2c0-0.1-0.1-0.1-0.2-0.2c-0.1,0-0.1-0.1-0.2-0.2c0,0,0-0.1,0-0.1c0-0.2-0.1-0.3-0.3-0.4
		c-0.1,0-0.1-0.1-0.1-0.1C5,6.6,5,6.5,4.9,6.4C4.8,6.2,4.7,6.2,4.5,6.2h0c0,0,0-0.1-0.1-0.2C4.4,5.9,4.3,5.9,4.2,6h0c0,0,0,0,0-0.1
		c0-0.1-0.1-0.2-0.1-0.3c0-0.1-0.1-0.1-0.2-0.1c0,0-0.1,0-0.1,0c0.1,0,0.1-0.1,0.1-0.1C3.9,5.4,4,5.4,4,5.2c0,0,0-0.1,0.1-0.1
		c0,0,0.1,0,0.2,0c0.1,0,0.2-0.1,0.3-0.2c0.1-0.1,0.1-0.2,0.1-0.3c0-0.1,0-0.1,0.1-0.2c0,0,0.1-0.1,0.1-0.1c0-0.1,0-0.1,0-0.2
		C4.9,4.1,4.9,4,5,4c0.1-0.1,0.2-0.3,0.1-0.4c0-0.1,0-0.3,0-0.4C5.2,3,5.1,2.8,5,2.7c0,0-0.1-0.1-0.1-0.1c0,0,0-0.1,0-0.1
		c0-0.1,0-0.2,0-0.3c0,0,0-0.1,0-0.1C4.8,1.9,4.7,1.9,4.5,1.9c0,0-0.1,0-0.1,0C4.3,2,4.3,2,4.3,1.9c0,0,0-0.1,0-0.1
		c0-0.1-0.1-0.1-0.2-0.1c0,0-0.1,0-0.1,0c-0.1,0-0.2,0-0.3-0.1C3.7,1.5,3.7,1.5,3.6,1.5C3.5,1.4,3.4,1.3,3.3,1.3
		c-0.1,0-0.2-0.1-0.2-0.1c0,0-0.1,0-0.1,0c-0.1,0-0.2,0.1-0.3,0.1C2.5,1.4,2.4,1.5,2.3,1.6C2.1,1.7,2,1.7,1.8,1.7h0
		c-0.1,0-0.2,0-0.2,0c-0.1,0-0.2,0.1-0.3,0.2c0,0-0.1,0.1-0.2,0S1,2,0.9,2C0.9,2.1,0.8,2.3,1,2.5c0,0,0.1,0,0.1,0.1
		c0.1,0.1,0.1,0.2,0.1,0.3c0,0,0,0.1-0.1,0.2c0,0.2,0,0.4,0.2,0.6c0,0,0.1,0.1,0.1,0.1C1.4,3.8,1.4,3.9,1.4,4c0,0.1,0,0.2-0.1,0.2
		s0,0.1,0,0.2c0,0,0,0.1,0,0.1c0,0.1,0,0.1,0,0.2c0,0.1,0,0.1,0,0.2c0,0.1,0,0.2,0.1,0.3c0,0,0.1,0.1,0.1,0.1
		c0.1,0.1,0.1,0.1,0.1,0.2c0,0.1,0,0.2,0,0.3C1.8,5.8,1.8,6,1.8,6.2c0,0.1,0,0.2-0.1,0.3c-0.1,0.1,0,0.2,0,0.3C1.9,6.9,1.9,7,2,7.1
		c0,0.1,0,0.1,0,0.1C1.9,7.3,1.9,7.5,1.9,7.7C1.9,7.8,2,7.9,2,7.9C2,8,2.1,8.1,2.1,8.2c0,0.1,0,0.1,0.1,0.2c0,0,0,0,0,0.1
		c0,0.1,0,0.2,0,0.3c0,0.1,0,0.2,0.1,0.2C2.4,9,2.4,9,2.4,9.1s0,0.1,0,0.2c0,0.1,0,0.2,0.1,0.3c0,0,0.1,0.1,0.1,0
		c0.1,0,0.1-0.1,0.1-0.1c0-0.1,0-0.1,0-0.2c0-0.1,0-0.2,0.1-0.3l0,0C3,8.8,3,8.7,2.9,8.5c-0.1-0.1-0.1-0.2,0-0.3c0-0.1,0-0.1,0-0.2
		c0-0.1,0-0.1,0-0.2c0-0.1-0.1-0.2-0.2-0.3c-0.1-0.1-0.1-0.3,0-0.4v0c0.1-0.2,0.1-0.3,0-0.5c0,0,0-0.1,0-0.1c0.1-0.1,0.1-0.2,0-0.3
		c0-0.1-0.1-0.1-0.1-0.2c0-0.1,0-0.2,0.1-0.2C2.8,6,2.8,6.1,2.9,6.2C3,6.2,3.1,6.3,3.2,6.2c0.1,0,0.1,0,0.2,0.1
		c0,0.1,0.1,0.2,0.1,0.2c0,0.1,0.1,0.1,0.1,0.2c0.1,0.1,0.1,0,0.1,0c0.1-0.1,0.1-0.1,0.2,0C4,6.8,4.1,6.8,4.1,6.8
		c0.1,0,0.1,0,0.1,0.1c0,0.1,0.1,0.2,0.1,0.3c0.1,0.1,0.1,0.2,0.3,0.1c0,0,0,0,0.1,0c0.1,0,0.1,0,0.1,0c0.1,0.1,0.1,0.2,0.1,0.3
		C5,7.6,5.1,7.7,5.2,7.7c0.1,0,0.1,0.1,0.2,0.1c0,0,0,0.1,0.1,0.1c0.1,0.2,0.2,0.3,0.3,0.3l0,0C5.9,8.4,6,8.5,6,8.6
		C6,8.7,6,8.8,6.1,8.9c0,0.1,0.1,0.1,0.2,0.2c0.1,0,0.1,0.1,0.1,0.1c0,0.1,0.1,0.1,0.1,0.2c0,0.1,0.1,0.1,0.2,0.1s0.1-0.1,0.1-0.2
		c0,0,0-0.1,0-0.1C6.7,9.2,6.7,9.1,6.7,9 M3.7,4.8C3.7,4.8,3.7,4.8,3.7,4.8c-0.1,0-0.2,0.1-0.2,0.1c-0.1,0-0.1,0-0.2,0.1
		C3.3,5,3.2,5,3.2,5c0,0.1-0.1,0.1-0.2,0.1c0,0,0,0-0.1-0.1C2.8,5,2.8,5,2.7,5.1c0,0-0.1,0-0.1,0.1c0-0.1,0-0.1,0-0.1
		c0,0,0-0.1,0-0.1c0-0.1,0-0.2-0.1-0.2c0,0-0.1-0.1-0.1-0.1c0-0.1,0-0.1,0-0.2c0-0.1,0-0.2-0.1-0.2c-0.1,0-0.1-0.1-0.1-0.1
		c0,0,0-0.1,0-0.1c0-0.2-0.1-0.3-0.2-0.3c0,0,0,0,0-0.1c0-0.1,0-0.2,0-0.3c0-0.1-0.1-0.2-0.1-0.2C2,3,2,2.9,2,2.8
		c0-0.1,0-0.1,0.1-0.1c0,0,0,0,0.1,0c0.2,0.1,0.3,0,0.4-0.1c0,0,0,0,0.1-0.1c0.1-0.1,0.1-0.1,0.2-0.1c0.1,0,0.1,0,0.2,0
		c0.1,0,0.2,0,0.2,0c0.2,0.3,0.2,0.3,0.5,0.2c0.1,0.1,0.1,0.1,0.1,0.2c0,0.1,0,0.1,0,0.1C3.9,3.1,4,3.2,4,3.2c0,0,0.1,0.1,0.1,0.1
		c0,0,0,0.1-0.1,0.1C4,3.5,4,3.6,4.1,3.6c0.1,0.1,0,0.2,0,0.3v0C4.1,4,4,4.1,3.9,4.2C3.9,4.3,3.8,4.4,3.8,4.5c0,0.1,0,0.1,0,0.2
		C3.8,4.7,3.7,4.7,3.7,4.8"/>
	<path class="st0" d="M32.4,4.7c0,0-0.1,0-0.1,0c-0.1,0.1-0.2,0.1-0.3,0.2c-0.1,0-0.2,0.1-0.2,0.1c-0.2,0.2-0.4,0.3-0.6,0.4h0
		c-0.2,0.1-0.3,0.1-0.5,0.2c-0.2,0-0.3,0.1-0.4,0.2c0,0,0-0.1,0-0.1c0-0.1,0-0.2,0-0.2c0-0.1-0.1-0.1-0.1-0.2c0,0,0-0.1,0-0.1
		c0-0.1,0-0.1-0.1-0.2c0,0,0-0.1,0-0.1c0-0.2,0-0.4,0-0.6c0-0.1,0-0.2-0.1-0.3c0,0-0.1,0-0.1-0.1c-0.1-0.2-0.2-0.4-0.2-0.6
		c0,0,0,0,0-0.1c-0.1-0.2-0.1-0.3-0.2-0.5c0-0.1-0.1-0.1-0.1-0.2c0,0-0.1-0.1-0.1,0c0,0-0.1,0-0.1,0.1c0,0.1,0,0.1,0,0.2
		c0,0.2,0,0.3,0,0.5c-0.1,0-0.1,0.1-0.1,0.2c0,0.1,0,0.2,0,0.3c0,0.1,0,0.1,0,0.2c0,0.1,0,0.3,0,0.4c0,0.2,0,0.3,0.1,0.4
		c0.1,0.1,0.1,0.2,0.1,0.3c0,0.1,0,0.1,0,0.2s0,0.1,0.1,0.2c0,0,0.1,0,0.1,0.1c0,0.2-0.1,0.3-0.1,0.5c0,0.2-0.1,0.3-0.1,0.5
		c0,0.1,0,0.1-0.1,0.1c0,0-0.1,0-0.2,0c-0.1,0-0.3,0.1-0.3,0.2c-0.1,0.1-0.1,0.1,0,0.2v0v0c0,0,0,0-0.1,0c-0.2,0.1-0.3,0.2-0.4,0.3
		c-0.1,0.1-0.1,0.2,0,0.2c0.1,0.1,0.1,0.1,0,0.2c-0.1,0.1-0.2,0.2-0.3,0.3c-0.1,0-0.1,0.1-0.1,0.2c0,0,0,0.1-0.1,0.1
		c-0.1,0-0.2,0.1-0.3,0.3c-0.1,0.1-0.1,0.2-0.2,0.2c-0.1,0-0.1,0-0.2,0.1c-0.2,0.1-0.4,0.3-0.6,0.5c-0.1,0.2-0.1,0.2-0.1,0.3
		c0,0.1,0,0.1,0,0.2c0.1,0,0.1,0,0.2,0l0,0c0.1-0.1,0.3-0.2,0.4-0.3c0.1,0,0.1-0.1,0.2-0.1c0.1,0,0.3-0.1,0.4-0.1
		c0.1,0,0.3-0.1,0.3-0.2c0.1-0.1,0.3-0.3,0.4-0.4c0,0,0,0,0.1-0.1c0.1-0.1,0.2-0.1,0.2-0.2c0.1-0.2,0.2-0.3,0.3-0.4
		C28.9,8,29,7.9,29,7.9c0,0,0.1-0.1,0.1-0.1c0-0.2,0.1-0.3,0.3-0.3c0.2-0.1,0.3-0.2,0.5-0.3C29.9,7,30,7,30,6.9
		c0-0.1,0.1-0.1,0.1-0.1c0.1-0.1,0.2-0.2,0.4-0.3c0.3-0.1,0.4-0.2,0.5-0.5c0-0.1,0.1-0.1,0.1-0.1c0,0,0.1,0,0.1-0.1
		c0.1,0,0.2-0.1,0.3-0.2c0.1-0.1,0.1-0.1,0.2-0.1c0.2-0.1,0.3-0.2,0.5-0.4c0.1-0.1,0.2-0.2,0.3-0.3C32.5,4.8,32.5,4.8,32.4,4.7"/>
	<path class="st0" d="M16.3,6.5c-0.1-0.1-0.1-0.3-0.1-0.4c0-0.1,0-0.2,0-0.3c0-0.1,0-0.2,0-0.3c0-0.1,0.1-0.3,0.1-0.4
		c0-0.1,0-0.1,0-0.2c-0.1-0.1-0.1-0.2,0-0.3c0-0.1,0.1-0.2,0.1-0.3c0,0,0-0.1,0-0.1c0-0.1,0-0.1-0.1-0.2c-0.1,0-0.1,0-0.2,0.1
		c0,0-0.1,0.1-0.1,0.1C16,4.4,16,4.5,16,4.5c0,0.2-0.1,0.3-0.1,0.5v0c-0.1,0.1-0.1,0.3-0.1,0.4c0,0.1-0.1,0.1-0.1,0.2
		c-0.1,0.1-0.2,0.1-0.3,0.2c-0.1,0.1-0.1,0.2-0.2,0.3c0-0.1,0-0.1,0-0.2c0-0.2,0.1-0.4,0.1-0.6c0-0.1,0-0.2,0.1-0.3
		c0-0.1,0-0.1,0-0.2c0-0.1-0.1-0.1-0.1-0.1c-0.1,0-0.1,0-0.2,0.1c0,0,0,0,0,0.1c-0.1,0.2-0.2,0.4-0.3,0.7c0-0.1-0.1-0.3-0.3-0.2
		c-0.1-0.1-0.1-0.2-0.1-0.3c0-0.1-0.1-0.1-0.1-0.2c0,0-0.1,0-0.1,0C14.1,4.9,14,5,14,5c0,0.1,0,0.1,0,0.2c0,0.1,0,0.2,0,0.3
		s0,0.2,0,0.3C14,5.8,14,5.9,13.9,6c0-0.1-0.1-0.1-0.1-0.2c0,0,0-0.1,0-0.1c0-0.1,0-0.1-0.1-0.2c0-0.1,0-0.2,0-0.2c0,0,0-0.1,0-0.1
		c0-0.2-0.1-0.3-0.1-0.5c0-0.1,0-0.1,0-0.2c0-0.1,0-0.2-0.1-0.2c-0.1,0-0.1,0-0.2,0.1c0,0.1-0.1,0.1-0.1,0.2c0,0.1,0,0.1-0.1,0.2
		c0,0,0,0.1-0.1,0.1C13,4.9,12.9,5,12.9,5c0,0.1,0,0.1-0.1,0.2c-0.1,0.1-0.1,0.3,0,0.4c0,0.1,0,0.1,0,0.2c-0.1,0.2-0.1,0.4-0.2,0.5
		c0,0,0,0.1,0,0.1c0,0.1,0,0.2,0,0.2c0.1,0.1,0.1,0.2,0.1,0.3c0,0,0,0,0,0.1C12.6,7,12.7,7,12.8,7s0.1,0,0.1-0.1
		c0-0.1,0-0.1,0.1-0.2C13,6.7,13,6.6,13,6.6c0-0.1,0-0.1,0-0.1c0,0,0-0.1,0.1-0.1c0,0,0-0.1,0-0.1c0-0.1,0.1-0.2,0.1-0.3
		c0,0,0,0,0.1,0c0.1,0,0.1,0.1,0.1,0.2c0,0.1,0.1,0.2,0.1,0.3c0.1,0.1,0.1,0.3,0.2,0.4l0,0c0,0,0.1,0,0.1,0c0.1,0,0.1-0.1,0.1-0.1
		c0-0.1,0-0.3,0-0.4c0-0.1,0-0.2,0-0.2C14,6.2,14,6.3,14,6.3c0,0,0,0.1,0,0.1c0,0.1,0.1,0.2,0.1,0.3c0,0,0.1,0,0.1,0
		c0.1-0.1,0.1-0.1,0.1-0.3c0,0,0-0.1,0-0.1c0-0.1,0-0.2,0-0.3c0,0,0-0.1,0-0.1c0.1,0,0.1,0.1,0.1,0.1c0.1,0.1,0.1,0.2,0.2,0.3
		c0.1,0.1,0.1,0.2,0.1,0.3c0,0,0.1,0.1,0.1,0.1c0.1,0,0.1,0,0.1-0.1c0,0,0-0.1,0-0.1l0,0v0c0,0.1,0.1,0.2,0.2,0.3c0,0,0.1,0,0.1,0.1
		c0.2,0.1,0.3,0.1,0.5-0.1c0,0,0,0,0.1-0.1c0,0.1,0,0.1,0,0.1c0,0.1,0.1,0.2,0.1,0.3c0.1,0.1,0.2,0.1,0.2,0c0.1,0,0.1-0.1,0.1-0.2
		C16.4,6.8,16.4,6.7,16.3,6.5 M13.2,5.6c0.1-0.2,0.1-0.3,0.2-0.4h0c0,0.1,0,0.2,0,0.2s0.1,0.1,0.1,0.2L13.2,5.6L13.2,5.6z M15.7,6.4
		C15.7,6.4,15.7,6.4,15.7,6.4c-0.2,0.2-0.2,0.1-0.2,0.1s0-0.1,0-0.2c0-0.1,0-0.1,0.1-0.1c0.1,0,0.1-0.1,0.2-0.2
		C15.8,6.1,15.9,6.2,15.7,6.4"/>
	<path class="st0" d="M11.7,3.4c-0.1,0-0.2,0-0.2,0c-0.1,0-0.2,0.1-0.2,0.1c-0.2,0.2-0.4,0.3-0.6,0.5c-0.1,0-0.1,0.1-0.2,0.1
		s-0.1,0-0.2,0.1c-0.1,0.1-0.2,0.1-0.2,0.2c0,0-0.1,0.1-0.1,0.1c-0.1,0-0.1,0.1-0.2,0.1c0-0.1-0.1-0.2,0-0.3c0,0,0-0.1,0-0.1
		c0-0.1,0-0.2,0-0.3c0,0,0-0.1,0-0.1c0-0.1,0-0.1,0-0.2c0-0.1,0-0.2,0-0.2c0,0,0-0.1,0-0.1c0-0.1,0-0.3,0-0.4c0-0.2-0.2-0.2-0.3-0.1
		c0,0,0,0-0.1,0c-0.1,0-0.1,0-0.2,0.1c0,0,0,0.1,0,0.1c0,0.1,0,0.1,0,0.2c0,0.2,0,0.4,0,0.6c0,0.2-0.1,0.5-0.2,0.7
		C9,4.5,9,4.5,9,4.6c0,0.1,0,0.1,0,0.2c0,0.1-0.1,0.2-0.1,0.3c0,0,0,0.1,0,0.1c0,0.1,0,0.1,0.1,0.1c0.1,0,0.1,0,0.1-0.1
		s0.1-0.1,0.1-0.2c0,0,0,0,0.1-0.1h0c0,0.1,0,0.1,0,0.2s0,0.1,0,0.1c0,0.2,0,0.3-0.1,0.4c0,0.1-0.1,0.1,0,0.2c0.1,0.1,0.1,0.1,0,0.2
		c0,0.2-0.1,0.4-0.1,0.6c0,0,0,0.1,0,0.1C8.9,7.1,8.9,7.2,8.9,7.3s0,0.2,0.1,0.3c0,0.1,0.1,0.1,0.1,0c0,0,0.1-0.1,0.1-0.2
		c0-0.1,0.1-0.3,0.1-0.3c0,0,0-0.1,0-0.1c0-0.1,0.1-0.3,0.1-0.4s0.1-0.3,0.1-0.4c0.1,0.1,0.2,0,0.2-0.1c0,0,0,0,0.1,0
		c0,0.1,0,0.1,0.1,0.2S10,6.3,10,6.4l0,0c0.1,0.2,0.2,0.3,0.2,0.5c0,0.1,0.1,0.2,0.2,0.3c0.1,0.1,0.2,0.2,0.2,0.3
		c0,0.2,0.1,0.3,0.2,0.4c0,0.1,0.1,0.1,0.1,0.2c0,0.1,0,0.1,0,0.2C11,8.3,11,8.4,11,8.5c0,0.1,0.1,0.1,0.1,0.1c0.1,0,0.1,0,0.1-0.1
		v0c0.1,0,0.2,0,0.2-0.1c0-0.1,0-0.2,0-0.3c0-0.1,0-0.1-0.1-0.2c-0.1-0.3-0.2-0.6-0.2-0.9c0-0.1,0-0.2-0.1-0.2
		c-0.1-0.1-0.1-0.2-0.2-0.3c0-0.2-0.1-0.3-0.3-0.3c-0.1,0-0.1,0-0.2-0.1c-0.1-0.1-0.2-0.3-0.3-0.4c0,0,0,0,0-0.1
		c0-0.1-0.1-0.1-0.1-0.2c-0.1-0.1,0-0.2,0.1-0.3c0.1,0,0.2-0.1,0.2-0.1c0.2-0.1,0.3-0.2,0.4-0.4c0-0.1,0.1-0.3,0.3-0.3
		c0,0,0.1,0,0.1,0c0.1-0.1,0.3-0.2,0.3-0.3c0-0.1,0.1-0.1,0.1-0.1c0.1-0.1,0.2-0.2,0.3-0.3c0,0,0-0.1,0-0.1
		C11.7,3.4,11.7,3.4,11.7,3.4"/>
	<path class="st0" d="M26.4,7.8c0,0,0-0.1,0-0.2c0-0.1-0.1-0.2-0.1-0.3c-0.1-0.1-0.1-0.3-0.1-0.4c0-0.2,0-0.5-0.2-0.7
		c-0.1-0.1-0.1-0.2-0.1-0.3c0-0.1,0-0.1,0-0.2c-0.1-0.1-0.2-0.3-0.3-0.3c-0.1,0-0.1-0.1,0-0.1c0,0,0.1,0,0.1-0.1
		c0.1,0,0.1-0.1,0.2-0.1c0.1-0.1,0.1-0.1,0.2-0.1c0,0,0.1,0,0.1,0C26.4,5,26.5,5,26.5,4.9c0-0.1,0-0.1,0-0.2c0,0,0-0.1,0-0.1
		c0-0.1,0-0.1-0.1-0.2c-0.1-0.1-0.1-0.2-0.2-0.3c0-0.1,0-0.1,0-0.2c0.1-0.1,0-0.2,0-0.2c-0.1-0.1-0.2-0.1-0.3-0.1
		c-0.1,0-0.2,0-0.3,0c-0.1-0.1-0.2-0.1-0.3,0c-0.1,0.1-0.2,0.2-0.3,0.3c0,0,0,0,0,0.1C25.1,4,25.1,4,25.1,3.9c0-0.1,0-0.3-0.1-0.4
		c0-0.1-0.1-0.1-0.1-0.1c-0.1,0-0.1,0-0.1,0.1c0,0,0,0.1,0,0.1c0,0.1,0,0.2,0,0.3c0,0.2-0.1,0.3-0.1,0.5s0,0.3-0.1,0.5
		c0,0.1,0,0.1,0,0.2c0,0.1,0.1,0.1,0.1,0.2c0.1,0,0.1,0.1,0.1,0.2c0,0.1-0.1,0.1-0.1,0.2c0,0.1,0,0.2,0,0.3c0.1,0.1,0.1,0.2,0,0.3
		s0,0.2,0,0.3c0,0.1,0,0.2,0,0.3c0,0,0,0.1,0,0.1c0,0,0,0.1,0,0.1c0.1,0.1,0.2,0.1,0.3-0.1c0-0.1,0-0.2,0-0.2c0-0.1,0-0.2,0.1-0.3
		c0-0.1,0-0.2,0.1-0.3c0-0.1,0-0.1,0-0.1c0,0,0.1,0,0.1,0.1c0.1,0.1,0.2,0.2,0.3,0.4c0,0.1,0.1,0.1,0.1,0.2c0.1,0.1,0.1,0.2,0.1,0.3
		c0,0.1,0,0.1,0,0.2C26,7.3,26,7.4,26,7.5c0,0.1,0.1,0.2,0.2,0.3C26.3,7.9,26.4,7.9,26.4,7.8 M25.7,4.9c0,0.1-0.1,0.1-0.1,0.1
		c0,0,0,0-0.1,0c0-0.1-0.1-0.1-0.2-0.2c0,0,0-0.1,0-0.1c0.1,0,0.2-0.1,0.2-0.2c0.1-0.2,0.1-0.2,0.3-0.2c-0.2,0.1-0.2,0.2-0.1,0.3
		C25.7,4.8,25.7,4.8,25.7,4.9"/>
	<path class="st0" d="M26.5,5.4c-0.1,0-0.1,0.1-0.1,0.2c0,0.1,0.1,0.1,0.2,0.1c0.1,0,0.1,0,0.2,0c0.1,0,0.2,0.1,0.3,0.1
		c0,0,0,0,0,0.1C27,6,27,6.1,27,6.2c0,0,0,0.1-0.1,0.1c0,0.1,0,0.1,0,0.2c0,0.1,0,0.1,0.1,0.1c0,0.1,0,0.1,0,0.2
		c-0.1,0.1-0.1,0.3,0,0.4c0,0,0,0,0,0.1c0,0.2,0,0.3,0,0.4c-0.1,0.2-0.1,0.4-0.1,0.6c0,0.1,0,0.2,0.1,0.3c0.1,0.1,0.1,0.1,0.2,0
		c0,0,0,0,0-0.1c0-0.1,0.1-0.2,0.1-0.3c0-0.1,0-0.1,0-0.2c0-0.2,0.1-0.4,0.1-0.7c0-0.1,0-0.3,0.1-0.3c0,0,0-0.1,0-0.1
		c0-0.1,0-0.2,0-0.3c0,0,0-0.1,0-0.1c0.1-0.1,0.1-0.3,0.1-0.4c0-0.1,0-0.1,0-0.2l0,0c0,0,0.1,0,0.1,0.1C27.7,5.9,27.9,6,28,5.9
		c0.1,0,0.1,0,0.2,0c0.1,0.1,0.2,0.1,0.3,0.1c0.1,0,0.2,0,0.2-0.2c0,0,0.1,0,0.1-0.1c0.1-0.1,0.1-0.1,0-0.2c0,0-0.1-0.1-0.1-0.1
		c-0.1,0-0.1,0-0.2,0c0,0-0.1,0-0.1-0.1c-0.1-0.1-0.1-0.1-0.2-0.1c-0.1,0-0.1,0-0.2,0c-0.1-0.1-0.1-0.1-0.3-0.1c-0.1,0-0.1,0-0.2,0
		c0-0.1,0-0.1,0.1-0.2c0.1-0.1,0.1-0.3,0.1-0.4c0-0.2,0.1-0.3,0.1-0.5v0c0-0.1,0-0.2-0.1-0.3c0-0.1,0-0.1,0-0.2s0.1-0.2,0.2-0.3
		c0-0.1,0.1-0.1,0.1-0.2c0-0.1-0.1-0.2-0.2-0.2c-0.1,0-0.2,0.1-0.2,0.2c0,0.1-0.1,0.1-0.1,0.2c-0.1,0.2-0.2,0.3-0.2,0.5
		c0,0.1,0,0.1-0.1,0.2c0,0.1-0.1,0.2-0.1,0.3c0,0.1,0,0.2-0.1,0.2C27,4.9,27,5,27,5.1c0,0.1,0,0.2-0.1,0.2c-0.1,0-0.1,0-0.2,0.1
		C26.7,5.4,26.6,5.4,26.5,5.4C26.5,5.4,26.5,5.4,26.5,5.4"/>
	<path class="st0" d="M8.5,6.2c-0.1,0.1-0.2,0.1-0.3,0c0,0-0.1-0.1-0.1-0.1C8,6.1,8,6.1,7.9,6.2c0,0-0.1,0-0.1,0c-0.1,0-0.1,0-0.2,0
		c-0.1,0-0.1,0.1-0.1,0.1c-0.1,0-0.1,0-0.1-0.1c0,0,0-0.1,0-0.1c0-0.1,0-0.1,0.1-0.1c0-0.1,0.1-0.1,0.1-0.2c0.1-0.1,0-0.2-0.1-0.3
		c0,0,0,0-0.1,0c0-0.1,0.1-0.2,0.2-0.3C7.7,5.2,7.7,5.1,7.9,5C7.9,4.9,8,4.9,7.9,4.8c0.1,0,0.1-0.1,0.2-0.1c0.1,0,0.1,0,0.2,0
		c0.2,0,0.3-0.1,0.3-0.2c0-0.1,0.1-0.1,0-0.2S8.6,4.3,8.5,4.3c-0.1,0-0.2,0-0.3,0c-0.1,0-0.1,0-0.1,0S8,4.3,7.9,4.3
		c-0.2,0-0.3,0.1-0.4,0.2c0,0-0.1,0.1-0.1,0.1c0,0.1-0.1,0.2-0.2,0.2h0C7.1,4.8,7,4.9,7,5.1c0,0.1,0,0.2-0.1,0.3
		C6.8,5.4,6.8,5.6,6.8,5.6c0,0.1,0,0.1-0.1,0.2c0,0-0.1,0.1-0.1,0.1c0,0.1-0.1,0.1-0.1,0.2c0,0.1,0,0.1,0.1,0.2c0,0,0,0,0.1,0
		c0,0,0,0.1-0.1,0.1c0,0.1,0,0.1-0.1,0.2c0,0.1,0,0.1,0.1,0.2c0,0,0.1,0,0.1,0C7,6.8,7,6.8,7,6.9C6.9,7,7,7,7,7.1
		c0.1,0,0.1,0.1,0.1,0.2c0,0,0,0.1,0,0.1c0,0,0,0.1,0.1,0.1c0,0,0.1,0.1,0.1,0c0,0,0.1-0.1,0.1-0.1c0-0.1,0.1-0.2,0.1-0.2
		c0-0.1,0.1-0.1,0.1-0.2c0,0,0.1-0.1,0.1,0c0,0,0.1,0,0.1,0C7.9,6.9,8,6.9,8,6.9c0.1-0.1,0.1-0.1,0.2-0.1c0.2,0,0.4-0.1,0.4-0.3
		c0,0,0-0.1,0-0.1C8.7,6.1,8.6,6.1,8.5,6.2"/>
	<path class="st0" d="M24.3,5.6c-0.1-0.1-0.1-0.2,0-0.3c0-0.1,0.1-0.1,0.1-0.2c0.1-0.2,0-0.3,0-0.5c0,0,0-0.1,0-0.1
		c0-0.1,0-0.2-0.1-0.2c-0.1-0.1-0.2-0.2-0.4-0.3c-0.2-0.1-0.4,0-0.5,0.1c-0.1,0.1-0.2,0.2-0.3,0.3c0,0-0.1,0.1-0.1,0.1
		c-0.2,0.1-0.3,0.2-0.3,0.4c0,0.1-0.1,0.2-0.1,0.3c-0.1,0.1-0.1,0.3,0,0.4c0.1,0.1,0.1,0.3,0.1,0.5c0,0.1,0,0.1,0,0.2
		c0,0.1,0,0.1,0,0.2c0,0.1,0.1,0.1,0.2,0.1c0.1,0,0.1,0,0.2,0.1c0.1,0,0.1,0.1,0.2,0.1c0,0,0.1,0,0.1,0.1C23.2,6.9,23.3,7,23.4,7
		c0.1,0,0.2-0.1,0.3,0c0,0,0.1,0,0.1,0c0.1-0.1,0.2-0.1,0.3-0.2c0.1-0.1,0.3-0.3,0.4-0.4c0.1-0.1,0.1-0.2,0.1-0.3
		C24.5,5.9,24.4,5.7,24.3,5.6 M23.6,6c0.1,0.1,0,0.1,0,0.2c-0.1,0-0.1,0-0.2,0c-0.1-0.1-0.1-0.1-0.1-0.2c0-0.1-0.1-0.1-0.2-0.1
		c-0.1,0-0.1,0-0.1-0.1c0,0,0-0.1,0-0.1c0-0.1,0-0.3,0.1-0.3c0.1-0.1,0.1-0.2,0.1-0.3c0-0.1,0.1-0.2,0.1-0.2c0,0.1,0,0.1,0,0.2
		c0,0.1,0,0.2,0.1,0.3c0,0,0.1,0,0.1,0c0.1,0,0.1,0.1,0.1,0.2c0,0,0,0.1,0,0.1C23.6,5.8,23.6,5.9,23.6,6"/>
	<path class="st0" d="M6.1,5.1c0-0.1,0-0.3,0.1-0.3c0-0.1,0.1-0.2,0-0.3c0-0.1-0.1-0.2,0-0.3v0c0-0.1,0-0.1-0.1-0.1
		c-0.1,0-0.1,0-0.2,0.1c0,0,0,0-0.1,0c-0.1,0-0.2,0-0.2,0.2c0,0.1,0,0.3,0,0.3c0,0,0,0,0,0.1c0,0.1,0,0.1,0.1,0.2S5.7,5,5.7,5
		c0,0,0,0.1,0,0.1c0,0.1-0.1,0.1-0.1,0.2c0,0.1,0,0.2,0.1,0.3c0,0,0.1,0.1,0.1,0.1c0,0.1,0,0.2,0,0.3c0,0.1,0,0.1,0,0.2
		c0,0.1,0,0.1,0,0.2c0,0.1,0,0.1,0,0.2c0,0.1,0.1,0.1,0.1,0.2s0,0.1,0,0.2l0,0c0,0.1,0,0.1,0,0.2c0,0.1,0,0.2,0.1,0.2
		c0.1,0.1,0.2,0.1,0.2,0c0,0,0-0.1,0-0.1c0-0.1,0-0.2,0-0.3c0-0.2,0-0.4,0.1-0.5c0,0,0-0.1,0-0.1c0.1-0.1,0-0.3,0-0.4v0
		c0-0.1,0-0.1,0-0.2c0-0.1,0.1-0.1,0.1-0.2c0.1-0.1,0.1-0.3-0.1-0.3C6.1,5.3,6.1,5.2,6.1,5.1"/>
	<path class="st0" d="M5.8,3.7C5.8,3.8,5.9,3.8,6,3.8c0.1,0,0.1-0.1,0.2-0.2c0-0.1,0-0.3,0.1-0.4C6.3,3,6.2,2.9,6,2.9
		c0-0.1,0-0.1,0-0.1C6,2.7,6,2.6,5.9,2.6c-0.1,0-0.2,0-0.2,0.1c-0.1,0.1-0.1,0.2,0,0.3c0,0.1,0,0.1,0,0.2c0,0.1-0.1,0.1-0.1,0.2
		c0,0.1,0,0.2,0.1,0.3C5.6,3.6,5.7,3.6,5.8,3.7"/>
	<polyline class="st0" points="28.3,9 28.3,9 28.3,9 28.3,9.1 28.2,9.1 28.2,9 28.2,9 28.2,9 	"/>
	<polyline class="st0" points="28.3,9 28.4,9 28.4,9.1 28.5,9 28.5,9 28.5,9.1 28.5,9.1 28.5,9 28.5,9 28.5,9 28.4,9.1 28.4,9.1 
		28.3,9 28.3,9 28.3,9 28.3,9.1 28.3,9.1 	"/>
</g>
</svg>
